<?xml version="1.0" encoding="UTF-8" standalone="no"?>
<!DOCTYPE svg PUBLIC "-//W3C//DTD SVG 1.1//EN" "http://www.w3.org/Graphics/SVG/1.1/DTD/svg11.dtd">
<svg xmlns="http://www.w3.org/2000/svg" version="1.1" viewBox="0.00 0.00 417.00 479.00">
<g stroke-width="2.00" fill="none" stroke-linecap="butt">
<path stroke="#80a6e2" vector-effect="non-scaling-stroke" d="
  M 344.94 175.00
  A 131.94 131.94 0.0 0 0 213.00 43.06
  A 131.94 131.94 0.0 0 0 81.06 175.00
  A 131.94 131.94 0.0 0 0 213.00 306.94
  A 131.94 131.94 0.0 0 0 344.94 175.00"
/>
<path stroke="#80a6e2" vector-effect="non-scaling-stroke" d="
  M 85.04 371.58
  L 85.28 405.58
  A 0.52 0.52 0.0 0 0 85.80 406.10
  L 97.65 406.01
  A 16.48 16.47 89.6 0 0 114.01 389.42
  L 113.99 387.34
  A 16.48 16.47 89.6 0 0 97.41 370.97
  L 85.56 371.06
  A 0.52 0.52 0.0 0 0 85.04 371.58"
/>
<path stroke="#80a6e2" vector-effect="non-scaling-stroke" d="
  M 188.25 378.75
  L 188.25 372.66
  Q 188.25 372.01 187.60 372.01
  L 183.15 372.00
  Q 182.49 371.99 182.49 372.66
  L 182.50 378.62
  Q 182.51 379.25 181.88 379.25
  L 179.17 379.25
  Q 178.59 379.25 178.55 379.83
  L 178.40 382.41
  Q 178.37 383.00 178.96 383.00
  L 181.96 383.00
  Q 182.48 383.00 182.48 383.52
  C 182.52 388.17 181.33 400.02 183.80 403.64
  C 186.47 407.56 192.22 407.39 196.30 405.58
  Q 196.78 405.36 196.69 404.85
  L 196.19 401.95
  Q 196.08 401.30 195.45 401.52
  C 192.75 402.50 188.43 403.22 188.30 399.42
  Q 188.18 395.88 188.27 383.60
  Q 188.27 383.01 188.86 383.01
  L 195.60 383.00
  A 0.60 0.59 89.5 0 0 196.19 382.39
  L 196.15 379.70
  A 0.45 0.45 0.0 0 0 195.70 379.25
  L 188.75 379.25
  Q 188.25 379.25 188.25 378.75"
/>
<path stroke="#80a6e2" vector-effect="non-scaling-stroke" d="
  M 138.50 402.76
  L 138.50 405.34
  Q 138.50 405.99 139.15 405.99
  L 143.17 406.01
  Q 143.77 406.01 143.77 405.41
  Q 143.80 396.24 143.47 387.07
  C 143.08 375.77 121.98 375.83 121.04 386.29
  Q 120.97 387.00 121.68 387.00
  L 126.55 387.00
  Q 127.21 387.00 127.34 386.35
  C 128.00 382.92 132.09 382.40 134.82 383.21
  C 138.08 384.18 138.44 388.37 138.22 391.21
  Q 138.17 391.81 137.60 391.65
  C 131.84 390.05 119.66 389.88 119.82 398.10
  C 120.00 407.45 133.25 410.07 138.09 402.63
  Q 138.50 402.00 138.50 402.76"
/>
<path stroke="#80a6e2" vector-effect="non-scaling-stroke" d="
  M 162.61 378.78
  C 146.52 379.90 147.23 405.40 161.98 406.73
  Q 171.60 407.60 174.69 398.39
  A 1.24 1.24 0.0 0 0 173.51 396.75
  L 169.00 396.75
  A 0.54 0.54 0.0 0 0 168.46 397.28
  Q 168.40 400.29 166.48 401.20
  C 155.71 406.27 152.82 384.82 162.77 383.71
  Q 166.66 383.28 168.56 387.54
  Q 168.78 388.05 169.33 388.03
  L 173.93 387.92
  Q 174.71 387.91 174.45 387.17
  Q 171.22 378.17 162.61 378.78"
/>
<path stroke="#80a6e2" vector-effect="non-scaling-stroke" d="
  M 226.0891 390.7885
  A 11.62 11.62 0.0 0 0 214.7358 378.9079
  L 212.5963 378.8593
  A 11.62 11.62 0.0 0 0 200.7157 390.2127
  L 200.6109 394.8315
  A 11.62 11.62 0.0 0 0 211.9642 406.7121
  L 214.1037 406.7607
  A 11.62 11.62 0.0 0 0 225.9843 395.4073
  L 226.0891 390.7885"
/>
<path stroke="#80a6e2" vector-effect="non-scaling-stroke" d="
  M 270.70 402.99
  L 270.86 405.34
  A 0.71 0.71 0.0 0 0 271.57 406.00
  L 275.53 406.00
  Q 276.25 406.00 276.25 405.28
  C 276.25 399.71 277.50 387.68 274.81 383.22
  C 270.75 376.50 254.25 376.65 253.32 386.32
  Q 253.26 387.00 253.94 387.00
  L 258.73 387.00
  Q 259.27 387.00 259.41 386.48
  Q 260.25 383.34 264.27 383.04
  C 270.87 382.54 269.99 386.60 270.46 391.24
  Q 270.52 391.80 269.97 391.65
  Q 263.45 389.85 258.25 391.20
  C 249.44 393.49 250.88 404.40 259.01 406.42
  Q 266.05 408.16 270.38 402.89
  Q 270.67 402.53 270.70 402.99"
/>
<path stroke="#80a6e2" vector-effect="non-scaling-stroke" d="
  M 290.52 381.91
  L 290.49 379.74
  A 0.50 0.50 0.0 0 0 289.99 379.25
  L 286.28 379.25
  Q 285.51 379.25 285.51 380.03
  L 285.48 418.50
  Q 285.48 419.02 286.00 419.02
  L 290.97 418.96
  A 0.30 0.30 0.0 0 0 291.27 418.66
  L 291.35 404.77
  Q 291.35 404.24 291.78 404.56
  C 303.61 413.38 314.08 397.64 309.68 386.56
  C 306.81 379.33 296.86 375.36 291.12 382.13
  Q 290.53 382.82 290.52 381.91"
/>
<path stroke="#80a6e2" vector-effect="non-scaling-stroke" d="
  M 323.52 381.91
  L 323.49 379.74
  A 0.50 0.50 0.0 0 0 322.99 379.25
  L 319.28 379.25
  Q 318.50 379.25 318.50 380.03
  L 318.49 418.37
  Q 318.49 419.00 319.12 419.00
  L 323.64 419.00
  Q 324.33 419.00 324.34 418.30
  L 324.47 404.72
  Q 324.48 404.31 324.80 404.56
  C 328.25 407.28 332.51 407.68 336.45 405.53
  Q 345.37 400.68 343.32 389.14
  C 341.73 380.20 330.87 374.61 324.08 382.12
  Q 323.53 382.73 323.52 381.91"
/>
<path stroke="#80a6e2" vector-effect="non-scaling-stroke" d="
  M 239.50 382.72
  L 239.50 379.87
  Q 239.50 379.25 238.87 379.25
  L 234.00 379.25
  Q 233.50 379.25 233.50 379.75
  L 233.50 405.25
  Q 233.50 406.00 234.25 406.00
  L 238.95 406.00
  Q 239.45 406.00 239.45 405.50
  C 239.53 398.61 236.42 382.27 248.51 384.65
  Q 249.22 384.79 249.23 384.07
  L 249.30 379.87
  Q 249.30 379.44 248.89 379.33
  Q 242.81 377.62 239.84 382.81
  Q 239.50 383.41 239.50 382.72"
/>
<path stroke="#80a6e2" vector-effect="non-scaling-stroke" d="
  M 309.90 175.01
  A 96.91 96.91 0.0 0 0 212.99 78.10
  A 96.91 96.91 0.0 0 0 116.08 175.01
  A 96.91 96.91 0.0 0 0 212.99 271.92
  A 96.91 96.91 0.0 0 0 309.90 175.01"
/>
<path stroke="#80a6e2" vector-effect="non-scaling-stroke" d="
  M 162.71 164.95
  L 228.68 140.89
  A 0.35 0.35 0.0 0 0 228.74 140.26
  L 207.95 127.81
  A 0.94 0.93 -74.7 0 1 207.50 127.01
  L 207.50 89.83
  A 0.25 0.25 0.0 0 0 207.23 89.58
  C 160.91 92.33 125.37 131.83 127.31 178.25
  Q 129.02 219.01 162.49 244.26
  Q 181.87 258.87 206.39 260.54
  Q 207.50 260.62 207.50 259.51
  L 207.50 223.51
  Q 207.50 222.99 207.05 222.72
  L 183.45 208.54
  A 0.36 0.35 -45.6 0 1 183.45 207.94
  L 217.29 186.58
  A 0.42 0.42 0.0 0 0 217.21 185.83
  L 162.71 165.56
  A 0.33 0.32 45.2 0 1 162.71 164.95"
/>
<path stroke="#80a6e2" vector-effect="non-scaling-stroke" d="
  M 254.49 143.43
  L 194.93 165.00
  Q 194.13 165.29 194.92 165.58
  L 242.20 183.21
  A 0.40 0.40 0.0 0 1 242.27 183.93
  L 204.74 207.58
  A 0.43 0.43 0.0 0 0 204.75 208.31
  L 218.05 216.20
  A 0.93 0.92 15.6 0 1 218.50 216.99
  L 218.50 260.00
  A 0.58 0.58 0.0 0 0 219.12 260.58
  C 253.65 258.31 284.71 234.22 294.84 201.06
  C 310.96 148.29 275.03 92.72 218.94 89.63
  Q 218.50 89.61 218.50 90.05
  L 218.50 120.71
  Q 218.50 121.22 218.94 121.48
  L 254.54 142.94
  A 0.27 0.27 0.0 0 1 254.49 143.43"
/>
<path stroke="#80a6e2" vector-effect="non-scaling-stroke" d="
  M 142.7510 168.7298
  A 0.26 0.26 0.0 0 0 142.4914 168.4694
  L 131.7714 168.4507
  A 0.26 0.26 0.0 0 0 131.5110 168.7102
  L 131.4890 181.2702
  A 0.26 0.26 0.0 0 0 131.7486 181.5306
  L 142.4686 181.5493
  A 0.26 0.26 0.0 0 0 142.7290 181.2898
  L 142.7510 168.7298"
/>
<path stroke="#80a6e2" vector-effect="non-scaling-stroke" d="
  M 294.4681 168.7204
  A 0.26 0.26 0.0 0 0 294.2072 168.4613
  L 283.4872 168.4987
  A 0.26 0.26 0.0 0 0 283.2281 168.7597
  L 283.2719 181.2996
  A 0.26 0.26 0.0 0 0 283.5328 181.5587
  L 294.2528 181.5213
  A 0.26 0.26 0.0 0 0 294.5119 181.2603
  L 294.4681 168.7204"
/>
<path stroke="#80a6e2" vector-effect="non-scaling-stroke" d="
  M 90.84 376.16
  L 90.72 400.72
  A 0.50 0.50 0.0 0 0 91.21 401.22
  L 95.87 401.24
  A 11.95 11.80 -89.7 0 0 107.74 389.35
  L 107.74 387.69
  A 11.95 11.80 -89.7 0 0 96.01 375.68
  L 91.35 375.66
  A 0.50 0.50 0.0 0 0 90.84 376.16"
/>
<path stroke="#80a6e2" vector-effect="non-scaling-stroke" d="
  M 127.11 395.68
  C 122.62 403.09 135.89 405.90 138.17 396.17
  Q 138.32 395.54 137.72 395.32
  Q 132.80 393.46 127.90 395.06
  Q 127.39 395.22 127.11 395.68"
/>
<path stroke="#80a6e2" vector-effect="non-scaling-stroke" d="
  M 209.69 400.81
  C 221.03 407.82 225.15 383.19 212.91 383.68
  C 204.94 384.00 204.66 397.70 209.69 400.81"
/>
<path stroke="#80a6e2" vector-effect="non-scaling-stroke" d="
  M 261.76 394.64
  C 256.71 395.74 257.56 402.01 262.49 402.27
  Q 269.65 402.66 270.37 395.92
  Q 270.43 395.41 269.95 395.24
  Q 265.78 393.76 261.76 394.64"
/>
<path stroke="#80a6e2" vector-effect="non-scaling-stroke" d="
  M 291.49 390.96
  C 291.48 395.48 290.64 400.41 296.51 401.73
  C 305.57 403.76 308.34 385.07 298.24 383.79
  C 293.77 383.22 291.50 386.77 291.49 390.96"
/>
<path stroke="#80a6e2" vector-effect="non-scaling-stroke" d="
  M 326.94 400.55
  C 331.49 403.62 336.08 400.55 337.24 395.81
  C 340.49 382.58 324.34 378.92 324.48 391.18
  C 324.52 394.64 323.63 398.32 326.94 400.55"
/>
</g>
<path fill="#014cc4" d="
  M 0.00 0.00
  L 417.00 0.00
  L 417.00 479.00
  L 0.00 479.00
  L 0.00 0.00
  Z
  M 344.94 175.00
  A 131.94 131.94 0.0 0 0 213.00 43.06
  A 131.94 131.94 0.0 0 0 81.06 175.00
  A 131.94 131.94 0.0 0 0 213.00 306.94
  A 131.94 131.94 0.0 0 0 344.94 175.00
  Z
  M 85.04 371.58
  L 85.28 405.58
  A 0.52 0.52 0.0 0 0 85.80 406.10
  L 97.65 406.01
  A 16.48 16.47 89.6 0 0 114.01 389.42
  L 113.99 387.34
  A 16.48 16.47 89.6 0 0 97.41 370.97
  L 85.56 371.06
  A 0.52 0.52 0.0 0 0 85.04 371.58
  Z
  M 188.25 378.75
  L 188.25 372.66
  Q 188.25 372.01 187.60 372.01
  L 183.15 372.00
  Q 182.49 371.99 182.49 372.66
  L 182.50 378.62
  Q 182.51 379.25 181.88 379.25
  L 179.17 379.25
  Q 178.59 379.25 178.55 379.83
  L 178.40 382.41
  Q 178.37 383.00 178.96 383.00
  L 181.96 383.00
  Q 182.48 383.00 182.48 383.52
  C 182.52 388.17 181.33 400.02 183.80 403.64
  C 186.47 407.56 192.22 407.39 196.30 405.58
  Q 196.78 405.36 196.69 404.85
  L 196.19 401.95
  Q 196.08 401.30 195.45 401.52
  C 192.75 402.50 188.43 403.22 188.30 399.42
  Q 188.18 395.88 188.27 383.60
  Q 188.27 383.01 188.86 383.01
  L 195.60 383.00
  A 0.60 0.59 89.5 0 0 196.19 382.39
  L 196.15 379.70
  A 0.45 0.45 0.0 0 0 195.70 379.25
  L 188.75 379.25
  Q 188.25 379.25 188.25 378.75
  Z
  M 138.50 402.76
  L 138.50 405.34
  Q 138.50 405.99 139.15 405.99
  L 143.17 406.01
  Q 143.77 406.01 143.77 405.41
  Q 143.80 396.24 143.47 387.07
  C 143.08 375.77 121.98 375.83 121.04 386.29
  Q 120.97 387.00 121.68 387.00
  L 126.55 387.00
  Q 127.21 387.00 127.34 386.35
  C 128.00 382.92 132.09 382.40 134.82 383.21
  C 138.08 384.18 138.44 388.37 138.22 391.21
  Q 138.17 391.81 137.60 391.65
  C 131.84 390.05 119.66 389.88 119.82 398.10
  C 120.00 407.45 133.25 410.07 138.09 402.63
  Q 138.50 402.00 138.50 402.76
  Z
  M 162.61 378.78
  C 146.52 379.90 147.23 405.40 161.98 406.73
  Q 171.60 407.60 174.69 398.39
  A 1.24 1.24 0.0 0 0 173.51 396.75
  L 169.00 396.75
  A 0.54 0.54 0.0 0 0 168.46 397.28
  Q 168.40 400.29 166.48 401.20
  C 155.71 406.27 152.82 384.82 162.77 383.71
  Q 166.66 383.28 168.56 387.54
  Q 168.78 388.05 169.33 388.03
  L 173.93 387.92
  Q 174.71 387.91 174.45 387.17
  Q 171.22 378.17 162.61 378.78
  Z
  M 226.0891 390.7885
  A 11.62 11.62 0.0 0 0 214.7358 378.9079
  L 212.5963 378.8593
  A 11.62 11.62 0.0 0 0 200.7157 390.2127
  L 200.6109 394.8315
  A 11.62 11.62 0.0 0 0 211.9642 406.7121
  L 214.1037 406.7607
  A 11.62 11.62 0.0 0 0 225.9843 395.4073
  L 226.0891 390.7885
  Z
  M 270.70 402.99
  L 270.86 405.34
  A 0.71 0.71 0.0 0 0 271.57 406.00
  L 275.53 406.00
  Q 276.25 406.00 276.25 405.28
  C 276.25 399.71 277.50 387.68 274.81 383.22
  C 270.75 376.50 254.25 376.65 253.32 386.32
  Q 253.26 387.00 253.94 387.00
  L 258.73 387.00
  Q 259.27 387.00 259.41 386.48
  Q 260.25 383.34 264.27 383.04
  C 270.87 382.54 269.99 386.60 270.46 391.24
  Q 270.52 391.80 269.97 391.65
  Q 263.45 389.85 258.25 391.20
  C 249.44 393.49 250.88 404.40 259.01 406.42
  Q 266.05 408.16 270.38 402.89
  Q 270.67 402.53 270.70 402.99
  Z
  M 290.52 381.91
  L 290.49 379.74
  A 0.50 0.50 0.0 0 0 289.99 379.25
  L 286.28 379.25
  Q 285.51 379.25 285.51 380.03
  L 285.48 418.50
  Q 285.48 419.02 286.00 419.02
  L 290.97 418.96
  A 0.30 0.30 0.0 0 0 291.27 418.66
  L 291.35 404.77
  Q 291.35 404.24 291.78 404.56
  C 303.61 413.38 314.08 397.64 309.68 386.56
  C 306.81 379.33 296.86 375.36 291.12 382.13
  Q 290.53 382.82 290.52 381.91
  Z
  M 323.52 381.91
  L 323.49 379.74
  A 0.50 0.50 0.0 0 0 322.99 379.25
  L 319.28 379.25
  Q 318.50 379.25 318.50 380.03
  L 318.49 418.37
  Q 318.49 419.00 319.12 419.00
  L 323.64 419.00
  Q 324.33 419.00 324.34 418.30
  L 324.47 404.72
  Q 324.48 404.31 324.80 404.56
  C 328.25 407.28 332.51 407.68 336.45 405.53
  Q 345.37 400.68 343.32 389.14
  C 341.73 380.20 330.87 374.61 324.08 382.12
  Q 323.53 382.73 323.52 381.91
  Z
  M 239.50 382.72
  L 239.50 379.87
  Q 239.50 379.25 238.87 379.25
  L 234.00 379.25
  Q 233.50 379.25 233.50 379.75
  L 233.50 405.25
  Q 233.50 406.00 234.25 406.00
  L 238.95 406.00
  Q 239.45 406.00 239.45 405.50
  C 239.53 398.61 236.42 382.27 248.51 384.65
  Q 249.22 384.79 249.23 384.07
  L 249.30 379.87
  Q 249.30 379.44 248.89 379.33
  Q 242.81 377.62 239.84 382.81
  Q 239.50 383.41 239.50 382.72
  Z"
/>
<path fill="#ffffff" d="
  M 344.94 175.00
  A 131.94 131.94 0.0 0 1 213.00 306.94
  A 131.94 131.94 0.0 0 1 81.06 175.00
  A 131.94 131.94 0.0 0 1 213.00 43.06
  A 131.94 131.94 0.0 0 1 344.94 175.00
  Z
  M 309.90 175.01
  A 96.91 96.91 0.0 0 0 212.99 78.10
  A 96.91 96.91 0.0 0 0 116.08 175.01
  A 96.91 96.91 0.0 0 0 212.99 271.92
  A 96.91 96.91 0.0 0 0 309.90 175.01
  Z"
/>
<path fill="#014cc4" d="
  M 309.90 175.01
  A 96.91 96.91 0.0 0 1 212.99 271.92
  A 96.91 96.91 0.0 0 1 116.08 175.01
  A 96.91 96.91 0.0 0 1 212.99 78.10
  A 96.91 96.91 0.0 0 1 309.90 175.01
  Z
  M 162.71 164.95
  L 228.68 140.89
  A 0.35 0.35 0.0 0 0 228.74 140.26
  L 207.95 127.81
  A 0.94 0.93 -74.7 0 1 207.50 127.01
  L 207.50 89.83
  A 0.25 0.25 0.0 0 0 207.23 89.58
  C 160.91 92.33 125.37 131.83 127.31 178.25
  Q 129.02 219.01 162.49 244.26
  Q 181.87 258.87 206.39 260.54
  Q 207.50 260.62 207.50 259.51
  L 207.50 223.51
  Q 207.50 222.99 207.05 222.72
  L 183.45 208.54
  A 0.36 0.35 -45.6 0 1 183.45 207.94
  L 217.29 186.58
  A 0.42 0.42 0.0 0 0 217.21 185.83
  L 162.71 165.56
  A 0.33 0.32 45.2 0 1 162.71 164.95
  Z
  M 254.49 143.43
  L 194.93 165.00
  Q 194.13 165.29 194.92 165.58
  L 242.20 183.21
  A 0.40 0.40 0.0 0 1 242.27 183.93
  L 204.74 207.58
  A 0.43 0.43 0.0 0 0 204.75 208.31
  L 218.05 216.20
  A 0.93 0.92 15.6 0 1 218.50 216.99
  L 218.50 260.00
  A 0.58 0.58 0.0 0 0 219.12 260.58
  C 253.65 258.31 284.71 234.22 294.84 201.06
  C 310.96 148.29 275.03 92.72 218.94 89.63
  Q 218.50 89.61 218.50 90.05
  L 218.50 120.71
  Q 218.50 121.22 218.94 121.48
  L 254.54 142.94
  A 0.27 0.27 0.0 0 1 254.49 143.43
  Z"
/>
<path fill="#ffffff" d="
  M 162.71 164.95
  A 0.33 0.32 45.2 0 0 162.71 165.56
  L 217.21 185.83
  A 0.42 0.42 0.0 0 1 217.29 186.58
  L 183.45 207.94
  A 0.36 0.35 -45.6 0 0 183.45 208.54
  L 207.05 222.72
  Q 207.50 222.99 207.50 223.51
  L 207.50 259.51
  Q 207.50 260.62 206.39 260.54
  Q 181.87 258.87 162.49 244.26
  Q 129.02 219.01 127.31 178.25
  C 125.37 131.83 160.91 92.33 207.23 89.58
  A 0.25 0.25 0.0 0 1 207.50 89.83
  L 207.50 127.01
  A 0.94 0.93 -74.7 0 0 207.95 127.81
  L 228.74 140.26
  A 0.35 0.35 0.0 0 1 228.68 140.89
  L 162.71 164.95
  Z
  M 142.7510 168.7298
  A 0.26 0.26 0.0 0 0 142.4914 168.4694
  L 131.7714 168.4507
  A 0.26 0.26 0.0 0 0 131.5110 168.7102
  L 131.4890 181.2702
  A 0.26 0.26 0.0 0 0 131.7486 181.5306
  L 142.4686 181.5493
  A 0.26 0.26 0.0 0 0 142.7290 181.2898
  L 142.7510 168.7298
  Z"
/>
<path fill="#ffffff" d="
  M 254.49 143.43
  A 0.27 0.27 0.0 0 0 254.54 142.94
  L 218.94 121.48
  Q 218.50 121.22 218.50 120.71
  L 218.50 90.05
  Q 218.50 89.61 218.94 89.63
  C 275.03 92.72 310.96 148.29 294.84 201.06
  C 284.71 234.22 253.65 258.31 219.12 260.58
  A 0.58 0.58 0.0 0 1 218.50 260.00
  L 218.50 216.99
  A 0.93 0.92 15.6 0 0 218.05 216.20
  L 204.75 208.31
  A 0.43 0.43 0.0 0 1 204.74 207.58
  L 242.27 183.93
  A 0.40 0.40 0.0 0 0 242.20 183.21
  L 194.92 165.58
  Q 194.13 165.29 194.93 165.00
  L 254.49 143.43
  Z
  M 294.4681 168.7204
  A 0.26 0.26 0.0 0 0 294.2072 168.4613
  L 283.4872 168.4987
  A 0.26 0.26 0.0 0 0 283.2281 168.7597
  L 283.2719 181.2996
  A 0.26 0.26 0.0 0 0 283.5328 181.5587
  L 294.2528 181.5213
  A 0.26 0.26 0.0 0 0 294.5119 181.2603
  L 294.4681 168.7204
  Z"
/>
<rect fill="#014cc4" x="-5.62" y="-6.54" transform="translate(137.12,175.00) rotate(0.1)" width="11.24" height="13.08" rx="0.26"/>
<rect fill="#014cc4" x="-5.62" y="-6.53" transform="translate(288.87,175.01) rotate(-0.2)" width="11.24" height="13.06" rx="0.26"/>
<path fill="#ffffff" d="
  M 85.04 371.58
  A 0.52 0.52 0.0 0 1 85.56 371.06
  L 97.41 370.97
  A 16.48 16.47 89.6 0 1 113.99 387.34
  L 114.01 389.42
  A 16.48 16.47 89.6 0 1 97.65 406.01
  L 85.80 406.10
  A 0.52 0.52 0.0 0 1 85.28 405.58
  L 85.04 371.58
  Z
  M 90.84 376.16
  L 90.72 400.72
  A 0.50 0.50 0.0 0 0 91.21 401.22
  L 95.87 401.24
  A 11.95 11.80 -89.7 0 0 107.74 389.35
  L 107.74 387.69
  A 11.95 11.80 -89.7 0 0 96.01 375.68
  L 91.35 375.66
  A 0.50 0.50 0.0 0 0 90.84 376.16
  Z"
/>
<path fill="#ffffff" d="
  M 188.75 379.25
  L 195.70 379.25
  A 0.45 0.45 0.0 0 1 196.15 379.70
  L 196.19 382.39
  A 0.60 0.59 89.5 0 1 195.60 383.00
  L 188.86 383.01
  Q 188.27 383.01 188.27 383.60
  Q 188.18 395.88 188.30 399.42
  C 188.43 403.22 192.75 402.50 195.45 401.52
  Q 196.08 401.30 196.19 401.95
  L 196.69 404.85
  Q 196.78 405.36 196.30 405.58
  C 192.22 407.39 186.47 407.56 183.80 403.64
  C 181.33 400.02 182.52 388.17 182.48 383.52
  Q 182.48 383.00 181.96 383.00
  L 178.96 383.00
  Q 178.37 383.00 178.40 382.41
  L 178.55 379.83
  Q 178.59 379.25 179.17 379.25
  L 181.88 379.25
  Q 182.51 379.25 182.50 378.62
  L 182.49 372.66
  Q 182.49 371.99 183.15 372.00
  L 187.60 372.01
  Q 188.25 372.01 188.25 372.66
  L 188.25 378.75
  Q 188.25 379.25 188.75 379.25
  Z"
/>
<path fill="#014cc4" d="
  M 90.84 376.16
  A 0.50 0.50 0.0 0 1 91.35 375.66
  L 96.01 375.68
  A 11.95 11.80 -89.7 0 1 107.74 387.69
  L 107.74 389.35
  A 11.95 11.80 -89.7 0 1 95.87 401.24
  L 91.21 401.22
  A 0.50 0.50 0.0 0 1 90.72 400.72
  L 90.84 376.16
  Z"
/>
<path fill="#ffffff" d="
  M 138.09 402.63
  C 133.25 410.07 120.00 407.45 119.82 398.10
  C 119.66 389.88 131.84 390.05 137.60 391.65
  Q 138.17 391.81 138.22 391.21
  C 138.44 388.37 138.08 384.18 134.82 383.21
  C 132.09 382.40 128.00 382.92 127.34 386.35
  Q 127.21 387.00 126.55 387.00
  L 121.68 387.00
  Q 120.97 387.00 121.04 386.29
  C 121.98 375.83 143.08 375.77 143.47 387.07
  Q 143.80 396.24 143.77 405.41
  Q 143.77 406.01 143.17 406.01
  L 139.15 405.99
  Q 138.50 405.99 138.50 405.34
  L 138.50 402.76
  Q 138.50 402.00 138.09 402.63
  Z
  M 127.11 395.68
  C 122.62 403.09 135.89 405.90 138.17 396.17
  Q 138.32 395.54 137.72 395.32
  Q 132.80 393.46 127.90 395.06
  Q 127.39 395.22 127.11 395.68
  Z"
/>
<path fill="#ffffff" d="
  M 161.98 406.73
  C 147.23 405.40 146.52 379.90 162.61 378.78
  Q 171.22 378.17 174.45 387.17
  Q 174.71 387.91 173.93 387.92
  L 169.33 388.03
  Q 168.78 388.05 168.56 387.54
  Q 166.66 383.28 162.77 383.71
  C 152.82 384.82 155.71 406.27 166.48 401.20
  Q 168.40 400.29 168.46 397.28
  A 0.54 0.54 0.0 0 1 169.00 396.75
  L 173.51 396.75
  A 1.24 1.24 0.0 0 1 174.69 398.39
  Q 171.60 407.60 161.98 406.73
  Z"
/>
<path fill="#ffffff" d="
  M 225.9843 395.4073
  A 11.62 11.62 0.0 0 1 214.1037 406.7607
  L 211.9642 406.7121
  A 11.62 11.62 0.0 0 1 200.6109 394.8315
  L 200.7157 390.2127
  A 11.62 11.62 0.0 0 1 212.5963 378.8593
  L 214.7358 378.9079
  A 11.62 11.62 0.0 0 1 226.0891 390.7885
  L 225.9843 395.4073
  Z
  M 209.69 400.81
  C 221.03 407.82 225.15 383.19 212.91 383.68
  C 204.94 384.00 204.66 397.70 209.69 400.81
  Z"
/>
<path fill="#ffffff" d="
  M 270.38 402.89
  Q 266.05 408.16 259.01 406.42
  C 250.88 404.40 249.44 393.49 258.25 391.20
  Q 263.45 389.85 269.97 391.65
  Q 270.52 391.80 270.46 391.24
  C 269.99 386.60 270.87 382.54 264.27 383.04
  Q 260.25 383.34 259.41 386.48
  Q 259.27 387.00 258.73 387.00
  L 253.94 387.00
  Q 253.26 387.00 253.32 386.32
  C 254.25 376.65 270.75 376.50 274.81 383.22
  C 277.50 387.68 276.25 399.71 276.25 405.28
  Q 276.25 406.00 275.53 406.00
  L 271.57 406.00
  A 0.71 0.71 0.0 0 1 270.86 405.34
  L 270.70 402.99
  Q 270.67 402.53 270.38 402.89
  Z
  M 261.76 394.64
  C 256.71 395.74 257.56 402.01 262.49 402.27
  Q 269.65 402.66 270.37 395.92
  Q 270.43 395.41 269.95 395.24
  Q 265.78 393.76 261.76 394.64
  Z"
/>
<path fill="#ffffff" d="
  M 291.12 382.13
  C 296.86 375.36 306.81 379.33 309.68 386.56
  C 314.08 397.64 303.61 413.38 291.78 404.56
  Q 291.35 404.24 291.35 404.77
  L 291.27 418.66
  A 0.30 0.30 0.0 0 1 290.97 418.96
  L 286.00 419.02
  Q 285.48 419.02 285.48 418.50
  L 285.51 380.03
  Q 285.51 379.25 286.28 379.25
  L 289.99 379.25
  A 0.50 0.50 0.0 0 1 290.49 379.74
  L 290.52 381.91
  Q 290.53 382.82 291.12 382.13
  Z
  M 291.49 390.96
  C 291.48 395.48 290.64 400.41 296.51 401.73
  C 305.57 403.76 308.34 385.07 298.24 383.79
  C 293.77 383.22 291.50 386.77 291.49 390.96
  Z"
/>
<path fill="#ffffff" d="
  M 324.08 382.12
  C 330.87 374.61 341.73 380.20 343.32 389.14
  Q 345.37 400.68 336.45 405.53
  C 332.51 407.68 328.25 407.28 324.80 404.56
  Q 324.48 404.31 324.47 404.72
  L 324.34 418.30
  Q 324.33 419.00 323.64 419.00
  L 319.12 419.00
  Q 318.49 419.00 318.49 418.37
  L 318.50 380.03
  Q 318.50 379.25 319.28 379.25
  L 322.99 379.25
  A 0.50 0.50 0.0 0 1 323.49 379.74
  L 323.52 381.91
  Q 323.53 382.73 324.08 382.12
  Z
  M 326.94 400.55
  C 331.49 403.62 336.08 400.55 337.24 395.81
  C 340.49 382.58 324.34 378.92 324.48 391.18
  C 324.52 394.64 323.63 398.32 326.94 400.55
  Z"
/>
<path fill="#ffffff" d="
  M 239.84 382.81
  Q 242.81 377.62 248.89 379.33
  Q 249.30 379.44 249.30 379.87
  L 249.23 384.07
  Q 249.22 384.79 248.51 384.65
  C 236.42 382.27 239.53 398.61 239.45 405.50
  Q 239.45 406.00 238.95 406.00
  L 234.25 406.00
  Q 233.50 406.00 233.50 405.25
  L 233.50 379.75
  Q 233.50 379.25 234.00 379.25
  L 238.87 379.25
  Q 239.50 379.25 239.50 379.87
  L 239.50 382.72
  Q 239.50 383.41 239.84 382.81
  Z"
/>
<path fill="#014cc4" d="
  M 209.69 400.81
  C 204.66 397.70 204.94 384.00 212.91 383.68
  C 225.15 383.19 221.03 407.82 209.69 400.81
  Z"
/>
<path fill="#014cc4" d="
  M 296.51 401.73
  C 290.64 400.41 291.48 395.48 291.49 390.96
  C 291.50 386.77 293.77 383.22 298.24 383.79
  C 308.34 385.07 305.57 403.76 296.51 401.73
  Z"
/>
<path fill="#014cc4" d="
  M 326.94 400.55
  C 323.63 398.32 324.52 394.64 324.48 391.18
  C 324.34 378.92 340.49 382.58 337.24 395.81
  C 336.08 400.55 331.49 403.62 326.94 400.55
  Z"
/>
<path fill="#014cc4" d="
  M 138.17 396.17
  C 135.89 405.90 122.62 403.09 127.11 395.68
  Q 127.39 395.22 127.90 395.06
  Q 132.80 393.46 137.72 395.32
  Q 138.32 395.54 138.17 396.17
  Z"
/>
<path fill="#014cc4" d="
  M 262.49 402.27
  C 257.56 402.01 256.71 395.74 261.76 394.64
  Q 265.78 393.76 269.95 395.24
  Q 270.43 395.41 270.37 395.92
  Q 269.65 402.66 262.49 402.27
  Z"
/>
</svg>
